<svg width="49" height="59" viewBox="0 0 49 59" fill="none" xmlns="http://www.w3.org/2000/svg">
<path d="M47.2249 12.0344C46.8333 11.8804 46.413 11.8129 45.9929 11.8364C45.4229 11.8764 44.9639 12.1074 44.6909 12.4864C43.0869 14.7344 41.7719 18.9794 40.7119 22.3914C40.2259 23.9684 39.5719 26.0794 39.0999 27.0814C38.6069 24.2744 39.1639 13.9914 39.3799 10.0314L39.3829 9.96738C39.5329 7.21638 39.5529 6.73338 39.5209 6.52138C39.2829 5.01238 38.6779 4.02138 37.7219 3.57838C36.7559 3.12838 35.5019 3.32838 34.1499 4.14138C33.4729 4.55138 33.2849 5.95738 32.7039 12.3314L32.7019 12.3594C32.3819 15.8614 31.6439 23.9254 30.7369 25.2694C29.7139 23.3894 28.3059 12.7144 27.6979 8.09338C27.2729 4.85738 27.0249 2.99938 26.8579 2.43838C26.5079 1.26238 25.0279 0.262382 23.5629 0.206382C22.3429 0.146382 21.3429 0.766382 20.8649 1.84438C19.9709 2.83938 20.2869 6.13638 21.2749 13.9464C21.7449 17.6644 22.7149 25.3414 22.1049 26.2034C20.8859 26.0704 18.7949 21.2614 15.8899 11.9044C15.0739 9.28438 14.8219 8.49638 14.5719 8.15138C14.0779 6.94938 12.3999 6.02238 10.8959 6.12738C10.7693 6.13619 10.6435 6.15255 10.5189 6.17638C9.73188 6.33238 7.93488 7.05738 8.31888 10.4024C9.37888 15.0394 10.5319 18.4434 11.6499 21.7484L11.6729 21.8144C12.3419 23.7944 12.9749 25.6644 13.5629 27.7394C14.9479 32.6394 14.4089 35.6794 14.4029 35.7144C14.3569 36.0264 14.2599 36.2174 14.1149 36.2844C14.0531 36.3111 13.9871 36.3263 13.9199 36.3294C13.4799 36.3594 12.8219 36.0694 12.4829 35.8794C11.7069 34.3974 7.84688 27.3354 4.34888 26.3554L4.22288 26.3184L4.09588 26.3304C2.81288 26.4514 1.86988 26.9364 1.29288 27.7714C0.37888 29.0914 0.75788 30.7734 0.84888 31.1114L0.90088 31.2314C0.92888 31.2824 3.73488 36.3964 4.16888 38.7754C4.54288 40.8154 6.47988 43.0254 8.03788 44.8014L8.10188 44.8744C8.60988 45.4544 9.04788 45.9574 9.39388 46.4224C13.9129 51.1354 21.0589 55.0994 21.1169 55.1324C22.0089 55.7894 22.5039 56.4254 22.5569 56.9724C22.5813 57.1792 22.5238 57.3873 22.3969 57.5524L22.2419 57.7144L23.2299 58.6744L42.0829 57.3504L42.8869 53.6664C45.3729 43.2644 44.8539 34.3944 44.8449 34.3364C44.8549 34.0094 45.5509 30.8534 46.1109 28.3034L46.1279 28.2384C47.2449 23.1584 48.6329 16.8384 48.8999 14.4354C49.0159 13.4074 48.3579 12.4634 47.2249 12.0344Z" fill="#A45C40"/>
</svg>
