<svg width="48" height="48" viewBox="0 0 48 48" fill="none" xmlns="http://www.w3.org/2000/svg">
<path d="M45.1598 12.4224C44.5178 4.32637 35.4258 5.15337 35.4258 5.15337C31.5888 -1.61163 25.5938 3.28837 25.5938 3.28837C20.9878 -3.34163 15.2138 2.80237 15.2138 2.80237C5.25684 1.72837 5.64284 9.86837 5.64284 9.86837C5.40884 12.4564 7.04584 20.4614 7.04584 20.4614C5.56884 15.8474 2.36584 19.6774 2.36584 19.6774C-1.57416 25.7554 1.39084 29.0824 1.39084 29.0824C6.72084 35.3284 18.0788 42.8254 18.0788 42.8254C22.1918 45.1814 20.4518 47.2824 20.4518 47.2824L45.3278 43.1724L45.8988 38.4544C49.6808 27.0184 45.1598 12.4224 45.1598 12.4224Z" fill="#F6EEE0"/>
</svg>
