<svg width="51" height="58" viewBox="0 0 51 58" fill="none" xmlns="http://www.w3.org/2000/svg">
<path d="M14.0709 25.9041L20.0829 17.4891C17.5839 17.0741 12.9949 16.9821 9.23687 20.7241C3.31186 26.6231 0.911865 39.3651 0.411865 42.4501L15.4699 57.4421C18.1809 57.2101 30.1829 55.6151 41.7489 44.1021C41.8709 43.8531 44.6889 41.7811 42.3849 39.4881C41.2849 38.3931 39.4659 38.4141 38.3429 39.5321C37.7709 40.1021 36.8819 40.1091 36.3219 39.5521C35.7619 38.9951 35.7699 38.1091 36.3419 37.5401L40.4289 33.4711C42.5049 31.4041 40.5479 27.9161 37.6489 28.7541L34.3039 31.6051C33.6929 32.1351 32.7839 32.0441 32.2819 31.4651C31.7629 30.8681 31.8739 29.9621 32.4649 29.4521C44.1519 19.2441 42.4449 20.4731 49.9649 13.4571C52.7739 11.1281 49.2399 7.01007 46.4719 9.36707L28.2819 25.6521C27.7529 26.1001 26.9419 26.1091 26.4219 25.6321C25.8209 25.1151 25.8069 24.3701 26.1999 23.7821L38.8869 4.14608C40.7409 1.64608 37.0919 -1.13092 35.1379 1.38908L16.3799 27.5091C15.9279 28.1591 15.0159 28.3091 14.3949 27.8541C14.2434 27.7491 14.1145 27.6147 14.0159 27.459C13.9173 27.3032 13.851 27.1293 13.8209 26.9474C13.7907 26.7656 13.7974 26.5795 13.8405 26.4003C13.8837 26.2211 13.9623 26.0523 14.0719 25.9041H14.0709Z" fill="black"/>
</svg>
